<?xml version="1.0" encoding="UTF-8"?>
<svg xmlns="http://www.w3.org/2000/svg" version="1.1" viewBox="0 0 1920 1080">
  <defs>
    <style>
      .cls-1 {
        fill: #fff;
      }
    </style>
  </defs>
  <!-- Generator: Adobe Illustrator 28.7.1, SVG Export Plug-In . SVG Version: 1.2.0 Build 142)  -->
  <g>
    <g id="FLAT_COLOR">
      <g>
        <g>
          <path class="cls-1" d="M1178.6,569.9c-7.5-15.6-15.3-31.2-25.2-45.5-11.1-15.1-23.8-29.3-36.7-43-12.3-11.7-25.6-22.4-39-32.8-8.5-6.5-17.5-12.6-27.1-17.5-20.9-10.2-43.5-16.4-66.1-21.2-5.5-1.4-9.7.5-5.3,5.8,14.8,18.4,19.2,39.5,17.1,62.4,0,1.8-.4,4.3.9,5.6.8.9,2,1.3,3.1,1.7,9.5,3,18.8,6.2,28.2,9.5,4.2,1.5,3.5-1.3,3.2-4.9-.5-5.1-1.2-10-1.8-15-.2-1.2-.5-6.5,1.6-3.9,1.2,1.6,1.9,3.8,2.4,5.8,1.5,5.8,2.8,11.9,4.3,17.7.7,2.9,3.1,5.1,5.8,6.3,2.8,1.5,3.5-.9,3.5-3.3,0-5.4-1-10.6-1.5-15.8,0-1.2-.2-2.7.2-3.8,1.3-2.2,2.6,1.7,2.9,2.8,1.6,5.7,3.3,11.5,4.5,17.4.6,3.9,2.4,7.7,6.4,9.2,4.3,1.9,3.5-2.3,3.1-5.1-.6-4.8-1.2-9.6-1.7-14.4-.4-4.9,1.8-5.1,3-.5,1.7,6.1,3.4,12.1,4.8,18.2.7,4.4,2.9,7.6,7.4,8.8,2.7,1,3.4.2,3.2-2.4.4-1.6-4.2-23.8-.2-19.6.8,1,1.2,2.5,1.6,3.7,1.6,5.6,3.2,11.1,4.4,16.9.4,2,1,4.3,2.4,5.9,1,1.4,7.1,5.4,7.4,1.6-.4-5.6-1.7-11.2-2-16.9,0-1.7.8-5.1,2.4-2.2,2.6,6.6,3.8,13.9,5.8,20.7.7,3.3,3.8,5.9,6.5,7.6.7.5,1.3.7,1.7.5.3-.2.6-.6.7-1.1.7-3.2.2-6.5-.2-9.6-.4-3.4-1-6.7-1-10.1,0-5.6,1.9-3.3,3.3.3,1.8,6.3,3.3,12.6,4.6,19,.5,3.9,2.4,7.7,6.3,9.2.7.3,1.4.5,1.9.3,1.4-.5,1.1-2.5,1.1-3.8-.6-5.9-1.4-11.9-2.1-17.9-.3-6.1,2.9-2.8,3.6,1,1.7,6.8,3.5,13.6,5,20.5.6,3.6,2.1,7.3,5.8,8.6,2.6,1.2,3.2,0,3.1-2.5-.4-7.1-1.6-14.2-2-21.3,0-1-.5-5.1,1.1-4.5.9.6,1.4,2.3,1.7,3.4,2.4,9.1,4.4,18.4,6.9,27.5.7,3,2.2,5.7,4.9,7.4,7.3,5.2,14.9,10.1,22.4,15.1.6.4,1.5.9,2.1.9h0c.6-.2,0-2-.5-2.7Z"/>
          <path class="cls-1" d="M1175.2,575c-5.5-2.9-11-5.8-16.5-8.6-2.3-1-4.7-2.4-6.9-3.5-2.1-1-2.6-.3-3.4,1.9-2.8,8.2-5.4,16.4-8.2,24.5-.5,1.1-1.2,3.7-2.6,3.4-1.2-1.1-.6-3.6-.5-5.1,1.3-8.3,3.2-16.6,4.1-25,.2-1.6.1-3.5-.7-4.8-1.3-1.8-4.1-3.1-5.7-1.1-.8,1-1.4,2.7-1.9,4-2.1,6.5-3.8,13.2-6.1,19.6-.8,2.2-1.8,4.3-2.8,6.4-.4.7-1,1.8-1.6,2.1h-.2c-1.6,0-.7-3.7-.7-4.9,1.5-9.9,4.4-19.6,4.7-29.7.1-1.9-.4-4.1-2.2-5.1-2.2-1.5-4.4-1.3-5.5,1.1-1.6,3-2.1,6.4-3.2,9.6-2.5,7.1-4.7,14.4-7.6,21.3-.7,1.1-1.6,1.2-1.9-.2-.3-1.4.2-2.9.3-4.3,1.4-8.9,2.8-17.9,4.3-26.9.2-1.3.4-2.8.2-4.2-.2-2.8-3.8-4.6-6-3.3-1.1.6-1.6,2.1-2,3.3-3,10.2-5.7,20.5-10.5,30-.6,1.1-1.6,1.4-1.8,0,0-3.5,1.3-7.1,1.7-10.6,1.2-7.4,2.2-14.9,3.1-22.3,0-1.3.3-2.7,0-4,0-3.2-6.4-6.1-7.9-2.6-2.5,8.9-5.6,17.8-8.8,26.6-.7,1.6-1.3,4-2.9,4.6-2.4-.3.6-8.4.6-10.2,1.2-7.1,2.2-14.2,3.2-21.4.2-1.8.5-4-.6-5.6-1-1.4-3.2-1.8-4.9-2.2h-1c-2.5.2-2.5,3.2-3.2,5-2.4,7.3-4.6,14.6-7.1,21.8-.5,1.6-1.5,3.4-2.5,4.5-2.2,2.3-1.1-3.7-1.1-4.7,1.2-7.8,2.7-15.5,3.8-23.3.6-4,1.1-8.2-4.1-9-4.8-1-4.5,3.9-5.8,7-2,6.2-4.1,12.4-6.3,18.5-.6,1.2-1.3,3.8-2.8,3.8-1.1-.8-.4-3.3-.4-4.6,1.2-7.6,2.6-15.2,3.7-22.9,1-5.1-.7-7.1-5.8-7.6-2-.2-2.9,1.7-3.4,3.4-1.2,4.1-2.4,8.3-3.7,12.4-.9,2.6-4.2,14.5-6.8,14.5-1.8-1,0-5.6.2-7.3,1.3-7.8,3-15.7,4-23.6.2-2.4-1.9-3.6-3.9-4.1-8.8-2.4-17.4-4.8-26.1-7.4-7.4-2.5-8.1-1-9.3,6.1-8.6,44.5-38,82.1-77.1,104.2-2.3,1.4-2.1,3.1-.7,5,13.6,16.8,27.1,33.7,41,50.3,4.5,5.1,10.5,9,17.5,8.7,27.8-2,55.2-7.1,81.2-17.3,46.7-16.5,90-43.5,123.1-80.7,2.6-2.7.2-4.2-2.1-5.4Z"/>
          <path class="cls-1" d="M894.7,640c-19.8-1.8-33.9,20.1-24.5,37.2,4.7,8.8,14.2,14.2,24.4,13.5,13.1-.8,23.5-11.8,23.5-24.9v-.2c.4-13.1-10.2-25-23.4-25.6Z"/>
          <path class="cls-1" d="M892.7,415.3c13.9.2,25.4-11.2,25.4-25.1v-.2c.2-18.3-18.7-30.7-35.4-23.4-25.2,11.2-17.8,48.3,10,48.7Z"/>
        </g>
        <path d="M1191.8,583.3c-.1-.2-.3-.4-.5-.6-2.2-2.1-4.9-4.3-5.9-7.2-3.2-10.9-4.2-22.4-8.3-33.1-4.7-13.2-11.6-25.4-19.6-36.9-20.2-29.2-45.4-54.4-74.3-74.9-8.1-6-16.2-11.8-24.2-17.8-2.4-1.8-4.2-4.3-4.9-7.2-2.6-9.8-3.1-20.7-9.7-28.8-8.4-10.6-22.8-12.4-35.2-8.3-12,3.5-22.6,9.6-32.7,16.7-2.6,1.9-5.6,3.1-8.9,2.8-13.2-1.4-26.4-3.2-39.6-4.4-1.6-.2-3.4-.3-4.9-.9-2.1-.7-3.2-2.9-4.2-4.9-8.4-17.9-30.2-21.9-45.1-9.6-2.6,1.9-5.1.5-7.4-1.1-9.8-6.2-20.6-11-32.2-12.8-8.1-.7-19.7,3.9-25.8,10.9-4.2,4.5-5.4,10.5-7,16.2-6.2,29.8,2.7,59.2,11.6,87.5,2.3,7.8,1.6,8.5-6.3,10.5-24.8,6.3-50.8,14-68.5,33.7-8.7,9.5-12.9,22.3-10.2,35,2,12.9,10.8,22.6,21.8,28.7,19,11,39.9,16.8,60.8,23,3.5,1.1,2.2,4.3,1.2,6.9-9.8,26.8-21.6,54.2-18.1,83.3,1,8.6,3.6,17.6,10,23.6,9,8.4,23,10.1,34.6,6.9,7.4-2.1,14.4-5.6,21-9.3,7.2-4.1,14-9,20.4-14.5,1-.8,2.1-1.6,3.3-2.2,2-1,4.2-.7,6.4-.5,7.9.8,14.9-1.2,21.2-6,1.7-1.3,3.7-3,6-2.8,4.5.7,8.8,2.5,13.2,3.7,5.8,1.8,11.7,3.6,17.5,5.5,4.8,1.5,8.4,5.2,12.2,8.2,3.7,3,7.3,6,11.2,8.7,16.2,11.9,42.8,22.1,59.4,5.4,6.8-7.2,9-16.5,9.8-26,0-3.5,1.6-5.9,5.1-6.9,51-18.9,103.7-46.2,133.5-93.5,1.9-2.5,2.7-6.4,5.1-8.5,1.3-.9,3.5,0,5.5,1,.7.4,1.5.8,2.3.8l.4.2c0,0,0-.2,0-.5ZM1020.5,389.9h.2c2.1,0,4.7.4,6.9,1.4,2.1,1,3.8,2.6,4.1,5,0,1.3-1.5,1-2.4.7-4.3-1.7-9-2.8-13.1-5.1-2.2-1.6,3.4-2.1,4.3-2ZM945.1,448.1c1.2,6,2.6,12.1,3.5,18.2h0c0,2.3-.2,4.9-3.2,4.4-4.8-.7-9.5-1.7-14.2-2.6-5.5-1-6.6-3.6-2.7-7.8,4.2-4.8,8.5-9.5,12.8-14.2,2.6-2.9,3.4-.9,3.8,2ZM873,497.1c-3.4,5.5-6.8,11-10.5,16.3-5.2,8.1-7.3,4.6-10.8-2.2-1.7-3.4-3.2-6.8-4.7-10.4-.6-1.5-1.4-3.4-.5-4.9,1-1.5,3.2-1.8,4.8-2,6.6-.6,13.1-1.2,19.6-2.1h.2c3.2.3,3.5,3.1,1.9,5.3ZM869.8,539.8c6.4-10.2,13.1-20.2,19.8-30.2,3.9-5.5,7.9-11.2,12.5-16.3,3.9-4.1,9.1-4.3,14.9-4.4,7.6.6,15.3,1.7,24,2.6,1.5.2,3.4.3,4.3,1.5.7,1.1.2,2.9,0,4.2-7.2,30.6-27.3,56.9-53.3,73.9-5,3.4-7.1,4.2-10-1.9-3.6-6.7-7.2-13.3-11.1-19.8-1.9-2.9-3.2-6.5-1.1-9.6ZM882.7,366.6c16.7-7.3,35.6,5.1,35.4,23.4v.2c0,13.9-11.5,25.3-25.4,25.1-27.8-.4-35.2-37.5-10-48.7ZM821,385.9c1.2-6.5,6.6-10.3,13.3-9.9h.2v.2c6.9.4,13.1,3.6,18.7,7.3,5,3.2,9.8,6.7,11.5,12.8,3,13.7,14.1,21.9,28.1,22.4,8.2.3,15.7-3.8,21.7-9.9,3.3-3.5,4.7-2.6,7.7.6,2.8,2.9,5.4,6,8.1,9.1,1.6,1.6,2.5,3.8.8,5.8-10.6,12.7-21.4,25.2-32.2,37.7-2.3,3.1-5.9,4.6-9.7,4.9-14.6,1.6-29.2,2.7-43.8,4.2-2.7.3-6.3,1.6-8.9.5-2.6-1.2-3.4-5.3-4.2-7.9-5.7-20-12.2-39.9-12.9-61-.1-5.6.4-11.3,1.6-16.8ZM773.8,563.3c-10.3-4.7-23.2-9.2-26.7-21.1v-.2h0c0-3.6,1.5-7.6,3.3-10.1,3.3-4.5,8.7-6.8,13.2-9.9,16-10.3,33.4-18.6,52.3-21.9,5.5-1.2,8.4-.8,10.6,4.9,5.1,11.1,10.3,22.2,15.3,33.4,1.4,2.6,1.4,5.6-.1,8.1-4.6,9-9.4,17.9-14,27-.8,1.6-1.8,3.4-3.3,4.3-2.2,1.3-5.3.3-7.7-.2-14.7-3.6-29-8.3-42.8-14.3ZM861.7,682.7c-10.7,7.9-22.4,15.4-36,16.5-7.8.5-11.3-3.9-12.6-11.3-.7-3.8-.7-7.7-.3-11.5,5.5-36.8,19.8-71.3,38-103.6,2.7-4.9,5.4-5.6,8.8-.7,8,12.6,15.7,25.5,23.6,38.2,3.8,6.1,7.4,12.1,11.5,17.8,1.5,2.2,3.2,4.4,4.7,6.6.3.5.4,1,.3,1.3h-.1c-.2.3-.7.5-1.3.5-2,.2-4.4,0-6.5.3-8.6.3-17.3,4.8-22.1,11.5-5.1,6.8-7,15.7-4.6,24.6,1.5,4.7.7,7-3.4,9.8ZM918.1,665.6v.2c0,13.1-10.4,24.1-23.5,24.9-10.2.7-19.7-4.7-24.4-13.5-9.4-17.1,4.7-39,24.5-37.2,13.2.6,23.8,12.5,23.4,25.6ZM1018.2,695.2c-.8,6.3-7.5,8.7-13.4,8.2h-.3c-3.4-.7-6.3-2.2-9.7-3.4-2.2-.8-2.8-2.3,0-2.9,7.3-1.4,14.6-3.2,21.9-4.4,1.4,0,1.8,1.4,1.5,2.5ZM1177.3,580.4c-33.1,37.2-76.4,64.2-123.1,80.7-26,10.2-53.4,15.3-81.2,17.3-7,.3-13-3.6-17.5-8.7-13.9-16.6-27.4-33.5-41-50.3-1.4-1.9-1.6-3.6.7-5,39.1-22.1,68.5-59.7,77.1-104.2,1.2-7.1,1.9-8.6,9.3-6.1,8.7,2.6,17.3,5,26.1,7.4,2,.5,4.1,1.7,3.9,4.1-1,7.9-2.7,15.8-4,23.6,0,1.7-2,6.3-.2,7.3,2.6,0,5.9-11.9,6.8-14.5,1.3-4.1,2.5-8.3,3.7-12.4.5-1.7,1.4-3.6,3.4-3.4,5.1.5,6.8,2.5,5.8,7.6-1.1,7.7-2.5,15.3-3.7,22.9,0,1.3-.7,3.8.4,4.6,1.5,0,2.2-2.6,2.8-3.8,2.2-6.1,4.3-12.3,6.3-18.5,1.3-3.1,1-8,5.8-7,5.2.8,4.7,5,4.1,9-1.1,7.8-2.6,15.5-3.8,23.3,0,1-1.1,7,1.1,4.7,1-1.1,2-2.9,2.5-4.5,2.5-7.2,4.7-14.5,7.1-21.8.7-1.8.7-4.8,3.2-5h1c1.7.4,3.9.8,4.9,2.2,1.1,1.6.8,3.8.6,5.6-1,7.2-2,14.3-3.2,21.4,0,1.8-3,9.9-.6,10.2,1.6-.6,2.2-3,2.9-4.6,3.2-8.8,6.3-17.7,8.8-26.6,1.5-3.5,7.8-.6,7.9,2.6.2,1.3,0,2.7,0,4-.9,7.4-1.9,14.9-3.1,22.3-.4,3.5-1.6,7.1-1.7,10.6.2,1.5,1.2,1.2,1.8,0,4.8-9.5,7.5-19.8,10.5-30,.4-1.2.9-2.7,2-3.3,2.2-1.3,5.8.5,6,3.3.2,1.4,0,2.9-.2,4.2-1.5,9-2.9,18-4.3,26.9,0,1.4-.6,2.9-.3,4.3.3,1.4,1.2,1.3,1.9.2,2.9-6.9,5.1-14.2,7.6-21.3,1.1-3.2,1.6-6.6,3.2-9.6,1.1-2.4,3.3-2.6,5.5-1.1,1.8,1,2.3,3.2,2.2,5.1-.3,10.1-3.2,19.8-4.7,29.7,0,1.2-.9,4.8.7,4.8h.2c.6-.2,1.2-1.3,1.6-2,1-2.1,2-4.2,2.8-6.4,2.3-6.4,4-13.1,6.1-19.6.5-1.3,1.1-3,1.9-4,1.6-2,4.4-.7,5.7,1.1.8,1.3.9,3.2.7,4.8-.9,8.4-2.8,16.7-4.1,25,0,1.5-.7,4,.5,5.1,1.4.3,2.1-2.3,2.6-3.4,2.8-8.1,5.4-16.3,8.2-24.5.8-2.2,1.3-2.9,3.4-1.9,2.2,1.1,4.6,2.5,6.9,3.5,5.5,2.8,11,5.7,16.5,8.6,2.3,1.2,4.7,2.7,2.1,5.4ZM1179.1,572.5h0c-.6,0-1.5-.4-2.1-.8-7.5-5-15.1-9.9-22.4-15.1-2.7-1.7-4.2-4.4-4.9-7.4-2.5-9.1-4.5-18.4-6.9-27.5-.3-1.1-.8-2.8-1.7-3.4-1.6-.6-1.1,3.5-1.1,4.5.4,7.1,1.6,14.2,2,21.3,0,2.4-.5,3.7-3.1,2.5-3.7-1.3-5.2-5-5.8-8.6-1.5-6.9-3.3-13.7-5-20.5-.7-3.8-3.9-7.1-3.6-1,.7,6,1.5,12,2.1,17.9,0,1.3.3,3.3-1.1,3.8-.5.2-1.2,0-1.9-.3-3.9-1.5-5.8-5.3-6.3-9.2-1.3-6.4-2.8-12.7-4.6-19-1.4-3.6-3.3-5.9-3.3-.3s.6,6.7,1,10.1c.4,3.1.9,6.4.2,9.6,0,.5-.4.9-.7,1.1-.4.2-1,0-1.7-.5-2.7-1.7-5.8-4.3-6.5-7.6-2-6.8-3.2-14.1-5.8-20.7-1.6-2.9-2.5.5-2.4,2.2.3,5.7,1.6,11.3,2,16.9-.3,3.8-6.4-.2-7.4-1.6-1.4-1.6-2-3.9-2.4-5.9-1.2-5.8-2.8-11.3-4.4-16.9-.4-1.2-.8-2.7-1.6-3.7-4-4.2.6,18,.2,19.6.2,2.6-.5,3.4-3.2,2.4-4.5-1.2-6.7-4.4-7.4-8.8-1.4-6.1-3.1-12.1-4.8-18.2-1.2-4.6-3.4-4.4-3,.5.5,4.8,1.1,9.6,1.7,14.4.4,2.8,1.2,7-3.1,5.1-4-1.5-5.8-5.3-6.4-9.2-1.2-5.9-2.9-11.7-4.5-17.4-.3-1.1-1.6-5-2.9-2.8-.4,1.1-.3,2.6-.2,3.8.5,5.2,1.4,10.4,1.5,15.8,0,2.4-.7,4.8-3.5,3.3-2.7-1.2-5.1-3.4-5.8-6.3-1.5-5.8-2.8-11.9-4.3-17.7-.5-2-1.2-4.2-2.4-5.8-2.1-2.6-1.8,2.7-1.6,3.9.6,5,1.3,9.9,1.8,15,.3,3.6,1,6.4-3.2,4.9-9.4-3.3-18.7-6.5-28.2-9.5-1.1-.4-2.3-.8-3.1-1.7-1.3-1.3-1-3.8-.9-5.6,2.1-22.9-2.3-44-17.1-62.4-4.4-5.3-.2-7.2,5.3-5.8,22.6,4.8,45.2,11,66.1,21.2,9.6,4.9,18.6,11,27.1,17.5,13.4,10.4,26.7,21.1,39,32.8,12.9,13.7,25.6,27.9,36.7,43,9.9,14.3,17.7,29.9,25.2,45.5.4.7,1.1,2.5.5,2.6Z"/>
      </g>
    </g>
    <g id="LINE_WORK">
      <path d="M1191.8,583.3c0-.2-.3-.4-.5-.6-2.2-2.1-4.9-4.3-5.9-7.2-3.2-10.9-4.2-22.4-8.3-33.1-4.7-13.2-11.6-25.4-19.6-36.9-20.2-29.2-45.4-54.4-74.3-74.9-8.1-6-16.2-11.8-24.2-17.8-2.4-1.8-4.2-4.3-4.9-7.2-2.6-9.8-3.1-20.7-9.7-28.8-8.4-10.6-22.8-12.4-35.2-8.3-12,3.5-22.6,9.6-32.7,16.7-2.6,1.9-5.6,3.1-8.9,2.8-13.2-1.4-26.4-3.2-39.6-4.4-1.6-.2-3.4-.3-4.9-.9-2.1-.7-3.2-2.9-4.2-4.9-8.4-17.9-30.2-21.9-45.1-9.6-2.6,1.9-5.1.5-7.4-1.1-9.8-6.2-20.6-11-32.2-12.8-8.1-.7-19.7,3.9-25.8,10.9-4.2,4.5-5.4,10.5-7,16.2-6.2,29.8,2.7,59.2,11.6,87.5,2.3,7.8,1.6,8.5-6.3,10.5-24.8,6.3-50.8,14-68.5,33.7-8.7,9.5-12.9,22.3-10.2,35,2,12.9,10.8,22.6,21.8,28.7,19,11,39.9,16.8,60.8,23,3.5,1.1,2.2,4.3,1.2,6.9-9.8,26.8-21.6,54.2-18.1,83.3,1,8.6,3.6,17.6,10,23.6,9,8.4,23,10.1,34.6,6.9,7.4-2.1,14.4-5.6,21-9.3,7.2-4.1,14-9,20.4-14.5,1-.8,2.1-1.6,3.3-2.2,2-1,4.2-.7,6.4-.5,7.9.8,14.9-1.2,21.2-6,1.7-1.3,3.7-3,6-2.8,4.5.7,8.8,2.5,13.2,3.7,5.8,1.8,11.7,3.6,17.5,5.5,4.8,1.5,8.4,5.2,12.2,8.2,3.7,3,7.3,6,11.2,8.7,16.2,11.9,42.8,22.1,59.4,5.4,6.8-7.2,9-16.5,9.8-26,0-3.5,1.6-5.9,5.1-6.9,51-18.9,103.7-46.2,133.5-93.5,1.9-2.5,2.7-6.4,5.1-8.5,1.3-.9,3.5,0,5.5,1,.7.4,1.5.8,2.3.8l.4.2c0,0,0-.2,0-.5ZM1020.5,389.9h.2c4.3,0,10.3,1.5,11,6.4,0,1.3-1.5,1-2.4.7-4.3-1.7-9-2.8-13.1-5.1-2.2-1.6,3.4-2.1,4.3-2ZM945.1,448.1c1.2,6,2.6,12.1,3.5,18.2h0c0,.1,0,.1,0,0h0c0,.1,0,0,0,0,0,2.2-.2,4.8-3.2,4.3-4.8-.7-9.5-1.7-14.2-2.6-5.5-1-6.6-3.6-2.7-7.8,4.2-4.8,8.5-9.5,12.8-14.2,2.6-2.9,3.4-.9,3.8,2ZM873,497.1c-3.4,5.5-6.8,11-10.5,16.3-5.2,8.1-7.3,4.6-10.8-2.2-1.7-3.4-3.2-6.8-4.7-10.4-.6-1.5-1.4-3.4-.5-4.9,1-1.5,3.2-1.8,4.8-2,6.6-.6,13.1-1.2,19.6-2.1h.2c3.2.3,3.5,3.1,1.9,5.3ZM869.8,539.8c6.4-10.2,13.1-20.2,19.8-30.2,3.9-5.5,7.9-11.2,12.5-16.3,3.9-4.1,9.1-4.3,14.9-4.4h0s0,0,0,0h.2s-.2,0-.2,0c7.6.6,15.3,1.7,24,2.6,1.5.2,3.4.3,4.3,1.5.7,1.1.2,2.9,0,4.2-7.2,30.6-27.3,56.9-53.3,73.9-5,3.4-7.1,4.2-10-1.9-3.6-6.7-7.2-13.3-11.1-19.8-1.9-2.9-3.2-6.5-1.1-9.6ZM882.7,366.6c16.7-7.3,35.6,5.1,35.4,23.4v.2c0,13.9-11.5,25.3-25.4,25.1-27.8-.4-35.2-37.5-10-48.7ZM821,385.9c1.2-6.5,6.6-10.3,13.3-9.9h.2v.2c6.9.4,13.1,3.6,18.7,7.3,5,3.2,9.8,6.7,11.5,12.8,3,13.7,14.1,21.9,28.1,22.4,8.2.3,15.7-3.8,21.7-9.9,3.3-3.5,4.7-2.6,7.7.6,2.8,2.9,5.4,6,8.1,9.1,1.6,1.6,2.5,3.8.8,5.8-10.6,12.7-21.4,25.2-32.2,37.7-2.3,3.1-5.9,4.6-9.7,4.9-14.6,1.6-29.2,2.7-43.8,4.2-2.7.3-6.3,1.6-8.9.5-2.6-1.2-3.4-5.3-4.2-7.9-5.7-20-12.2-39.9-12.9-61,0-5.6.4-11.3,1.6-16.8ZM773.8,563.3c-10.3-4.7-23.2-9.2-26.7-21.1v-.2h0c0-3.6,1.5-7.6,3.3-10.1,3.3-4.5,8.7-6.8,13.2-9.9,16-10.3,33.4-18.6,52.3-21.9,5.5-1.2,8.4-.8,10.6,4.9,5.1,11.1,10.3,22.2,15.3,33.4,1.4,2.6,1.4,5.6,0,8.1-4.6,9-9.4,17.9-14,27-.8,1.6-1.8,3.4-3.3,4.3-2.2,1.3-5.3.3-7.7-.2-14.7-3.6-29-8.3-42.8-14.3ZM861.7,682.7c-10.7,7.9-22.4,15.4-36,16.5-7.8.5-11.3-3.9-12.6-11.3-.7-3.8-.7-7.7-.3-11.5,5.5-36.8,19.8-71.3,38-103.6,2.7-4.9,5.4-5.6,8.8-.7,8,12.6,15.7,25.5,23.6,38.2,3.8,6.1,7.4,12.1,11.5,17.8,1.5,2.2,3.2,4.4,4.7,6.6.3.5.4,1,.3,1.3h-.1c-.2.3-.7.5-1.3.5-2,.2-4.4,0-6.5.3-8.6.3-17.3,4.8-22.1,11.5-5.1,6.8-7,15.7-4.6,24.6,1.5,4.7.7,7-3.4,9.8ZM918.1,665.6v.2c0,13.1-10.4,24.1-23.5,24.9-10.2.7-19.7-4.7-24.4-13.5-9.4-17.1,4.7-39,24.5-37.2,13.2.6,23.8,12.5,23.4,25.6ZM1018.2,695.2c-.8,6.3-7.5,8.7-13.4,8.2h-.3c-3.4-.7-6.3-2.2-9.7-3.4-2.2-.8-2.8-2.3,0-2.9,7.3-1.4,14.6-3.2,21.9-4.4,1.4,0,1.8,1.4,1.5,2.5ZM1177.3,580.4c-33.1,37.2-76.4,64.2-123.1,80.7-26,10.2-53.4,15.3-81.2,17.3-7,.3-13-3.6-17.5-8.7-13.9-16.6-27.4-33.5-41-50.3-1.4-1.9-1.6-3.6.7-5,39.1-22.1,68.5-59.7,77.1-104.2,1.2-7.1,1.9-8.6,9.3-6.1,8.7,2.6,17.3,5,26.1,7.4,2,.5,4.1,1.7,3.9,4.1-1,7.9-2.7,15.8-4,23.6,0,1.7-2,6.3-.2,7.3,2.6,0,5.9-11.9,6.8-14.5,1.3-4.1,2.5-8.3,3.7-12.4.5-1.7,1.4-3.6,3.4-3.4,5.1.5,6.8,2.5,5.8,7.6-1.1,7.7-2.5,15.3-3.7,22.9,0,1.3-.7,3.8.4,4.6,1.5,0,2.2-2.6,2.8-3.8,2.2-6.1,4.3-12.3,6.3-18.5,1.3-3.1,1-8,5.8-7,5.2.8,4.7,5,4.1,9-1.1,7.8-2.6,15.5-3.8,23.3,0,1-1.1,7,1.1,4.7,1-1.1,2-2.9,2.5-4.5,2.5-7.2,4.7-14.5,7.1-21.8.7-1.8.7-4.8,3.2-5h1c1.7.4,3.9.8,4.9,2.2,1.1,1.6.8,3.8.6,5.6-1,7.2-2,14.3-3.2,21.4,0,1.8-3,9.9-.6,10.2,1.6-.6,2.2-3,2.9-4.6,3.2-8.8,6.3-17.7,8.8-26.6,1.5-3.5,7.8-.6,7.9,2.6.2,1.3,0,2.7,0,4-.9,7.4-1.9,14.9-3.1,22.3-.4,3.5-1.6,7.1-1.7,10.6.2,1.5,1.2,1.2,1.8,0,4.8-9.5,7.5-19.8,10.5-30,.4-1.2.9-2.7,2-3.3,2.2-1.3,5.8.5,6,3.3.2,1.4,0,2.9-.2,4.2-1.5,9-2.9,18-4.3,26.9,0,1.4-.6,2.9-.3,4.3.3,1.4,1.2,1.3,1.9.2,2.9-6.9,5.1-14.2,7.6-21.3,1.1-3.2,1.6-6.6,3.2-9.6,1.1-2.4,3.3-2.6,5.5-1.1,1.8,1,2.3,3.2,2.2,5.1-.3,10.1-3.2,19.8-4.7,29.7,0,1.2-.9,4.8.7,4.8h.2c.6-.2,1.2-1.3,1.6-2,1-2.1,2-4.2,2.8-6.4,2.3-6.4,4-13.1,6.1-19.6.5-1.3,1.1-3,1.9-4,1.6-2,4.4-.7,5.7,1.1.8,1.3.9,3.2.7,4.8-.9,8.4-2.8,16.7-4.1,25,0,1.5-.7,4,.5,5.1,1.4.3,2.1-2.3,2.6-3.4,2.8-8.1,5.4-16.3,8.2-24.5.8-2.2,1.3-2.9,3.4-1.9,2.2,1.1,4.6,2.5,6.9,3.5,5.5,2.8,11,5.7,16.5,8.6,2.3,1.2,4.7,2.7,2.1,5.4ZM1179.1,572.5h0c-.6.1-1.5-.4-2.1-.8-7.5-5-15.1-9.9-22.4-15.1-2.7-1.7-4.2-4.4-4.9-7.4-2.5-9.1-4.5-18.4-6.9-27.5-.3-1.1-.8-2.8-1.7-3.4-1.6-.6-1.1,3.5-1.1,4.5.4,7.1,1.6,14.2,2,21.3,0,2.4-.5,3.7-3.1,2.5-3.7-1.3-5.2-5-5.8-8.6-1.5-6.9-3.3-13.7-5-20.5-.7-3.8-3.9-7.1-3.6-1,.7,6,1.5,12,2.1,17.9,0,1.3.3,3.3-1.1,3.8-.5.2-1.2,0-1.9-.3-3.9-1.5-5.8-5.3-6.3-9.2-1.3-6.4-2.8-12.7-4.6-19-1.4-3.6-3.3-5.9-3.3-.3s.6,6.7,1,10.1c.4,3.1.9,6.4.2,9.6,0,.5-.4.9-.7,1.1-.4.2-1,0-1.7-.5-2.7-1.7-5.8-4.3-6.5-7.6-2-6.8-3.2-14.1-5.8-20.7-1.6-2.9-2.5.5-2.4,2.2.3,5.7,1.6,11.3,2,16.9-.3,3.8-6.4-.2-7.4-1.6-1.4-1.6-2-3.9-2.4-5.9-1.2-5.8-2.8-11.3-4.4-16.9-.4-1.2-.8-2.7-1.6-3.7-4-4.2.6,18,.2,19.6.2,2.6-.5,3.4-3.2,2.4-4.5-1.2-6.7-4.4-7.4-8.8-1.4-6.1-3.1-12.1-4.8-18.2-1.2-4.6-3.4-4.4-3,.5.5,4.8,1.1,9.6,1.7,14.4.4,2.8,1.2,7-3.1,5.1-4-1.5-5.8-5.3-6.4-9.2-1.2-5.9-2.9-11.7-4.5-17.4-.3-1.1-1.6-5-2.9-2.8-.4,1.1-.3,2.6-.2,3.8.5,5.2,1.4,10.4,1.5,15.8,0,2.4-.7,4.8-3.5,3.3-2.7-1.2-5.1-3.4-5.8-6.3-1.5-5.8-2.8-11.9-4.3-17.7-.5-2-1.2-4.2-2.4-5.8-2.1-2.6-1.8,2.7-1.6,3.9.6,5,1.3,9.9,1.8,15,.3,3.6,1,6.4-3.2,4.9-9.4-3.3-18.7-6.5-28.2-9.5-1.1-.4-2.3-.8-3.1-1.7-1.3-1.3-1-3.8-.9-5.6,2.1-22.9-2.3-44-17.1-62.4-4.4-5.3-.2-7.2,5.3-5.8,22.6,4.8,45.2,11,66.1,21.2,9.6,4.9,18.6,11,27.1,17.5,13.4,10.4,26.7,21.1,39,32.8,12.9,13.7,25.6,27.9,36.7,43,9.9,14.3,17.7,29.9,25.2,45.5.4.7,1.1,2.5.5,2.6Z"/>
    </g>
  </g>
</svg>